<?xml version="1.0" encoding="UTF-8"?>
<svg xmlns="http://www.w3.org/2000/svg" xmlns:xlink="http://www.w3.org/1999/xlink" width="32px" height="48px" viewBox="0 0 32 48" version="1.1">
<g id="surface1">
<path style=" stroke:none;fill-rule:nonzero;fill:rgb(0%,0%,0%);fill-opacity:1;" d="M 0 24 L 0 48 L 32 48 L 32 0 L 0 0 Z M 17.40625 11.671875 C 18.355469 11.789062 19.238281 11.992188 20.023438 12.269531 C 21.757812 12.882812 23.277344 13.851562 24.589844 15.160156 C 26.144531 16.714844 27.171875 18.519531 27.699219 20.617188 C 28 21.804688 28.140625 23.234375 28.066406 24.3125 C 27.882812 26.914062 27.011719 29.164062 25.417969 31.15625 C 25.015625 31.660156 24.117188 32.570312 23.640625 32.957031 C 22.003906 34.28125 20.023438 35.191406 18.03125 35.527344 C 16.804688 35.734375 15.230469 35.742188 14.023438 35.550781 C 10.101562 34.914062 6.808594 32.523438 5.03125 29.015625 C 3.859375 26.710938 3.476562 24.148438 3.910156 21.53125 C 4.492188 17.996094 6.789062 14.8125 10.019531 13.054688 C 11.542969 12.222656 13.042969 11.785156 14.9375 11.613281 C 15.269531 11.585938 17.03125 11.625 17.40625 11.671875 Z M 17.40625 11.671875 "/>
<path style=" stroke:none;fill-rule:nonzero;fill:rgb(0%,0%,0%);fill-opacity:1;" d="M 15.417969 15.601562 C 15.75 15.992188 16.03125 16.515625 16.128906 16.925781 C 16.183594 17.164062 16.167969 17.667969 16.097656 17.941406 C 15.980469 18.398438 15.851562 18.589844 15.363281 19.078125 C 14.765625 19.675781 14.578125 20.007812 14.539062 20.550781 C 14.5 21.140625 14.8125 21.878906 15.3125 22.359375 C 15.417969 22.460938 15.46875 22.492188 15.457031 22.453125 C 15.3125 21.941406 15.355469 21.375 15.585938 20.871094 C 15.664062 20.695312 15.976562 20.214844 16.375 19.65625 C 16.542969 19.414062 16.703125 19.085938 16.804688 18.757812 C 16.882812 18.507812 16.886719 18.445312 16.886719 17.921875 C 16.890625 17.273438 16.863281 17.125 16.640625 16.671875 C 16.386719 16.152344 16.007812 15.792969 15.425781 15.523438 L 15.304688 15.46875 Z M 15.417969 15.601562 "/>
<path style=" stroke:none;fill-rule:nonzero;fill:rgb(0%,0%,0%);fill-opacity:1;" d="M 11.515625 23.308594 C 11.289062 23.414062 11.265625 23.492188 11.269531 24.15625 C 11.273438 25.28125 11.46875 26.179688 11.90625 27.085938 C 12.289062 27.882812 12.746094 28.433594 13.523438 29.042969 C 13.632812 29.128906 13.71875 29.210938 13.71875 29.222656 C 13.71875 29.238281 12.699219 29.25 11.453125 29.25 C 9.765625 29.25 9.167969 29.257812 9.109375 29.289062 C 8.945312 29.363281 8.886719 29.613281 9 29.757812 C 9.089844 29.871094 9.238281 29.90625 9.65625 29.90625 C 10.550781 29.90625 11.3125 30.078125 12.234375 30.484375 C 12.460938 30.585938 12.769531 30.714844 12.921875 30.773438 L 13.203125 30.886719 L 14.96875 30.910156 C 15.941406 30.921875 16.890625 30.917969 17.078125 30.90625 C 17.464844 30.878906 17.667969 30.816406 18.1875 30.570312 C 19.144531 30.117188 19.835938 29.949219 20.894531 29.914062 C 21.601562 29.882812 21.660156 29.867188 21.722656 29.660156 C 21.765625 29.515625 21.722656 29.398438 21.585938 29.300781 C 21.492188 29.234375 21.484375 29.234375 19.179688 29.242188 L 16.859375 29.25 L 17.09375 29.039062 C 17.222656 28.925781 17.472656 28.691406 17.644531 28.523438 L 17.960938 28.210938 L 18.050781 28.257812 C 18.40625 28.441406 19.097656 28.402344 19.632812 28.171875 C 20.003906 28.015625 20.199219 27.882812 20.492188 27.613281 C 21.078125 27.058594 21.40625 26.328125 21.40625 25.570312 C 21.402344 24.882812 21.097656 24.320312 20.585938 24.070312 C 20.308594 23.933594 20.128906 23.898438 19.726562 23.898438 L 19.382812 23.898438 L 19.359375 23.753906 C 19.332031 23.5625 19.273438 23.460938 19.132812 23.351562 L 19.023438 23.265625 L 15.332031 23.257812 C 11.800781 23.25 11.632812 23.253906 11.515625 23.308594 Z M 20.242188 24.832031 C 20.488281 24.976562 20.625 25.285156 20.625 25.699219 C 20.625 26.296875 20.257812 27.035156 19.804688 27.351562 C 19.488281 27.574219 19.316406 27.632812 18.929688 27.648438 C 18.75 27.65625 18.546875 27.652344 18.484375 27.644531 L 18.371094 27.621094 L 18.457031 27.492188 C 18.601562 27.25 18.898438 26.613281 19.015625 26.28125 C 19.121094 25.972656 19.285156 25.351562 19.328125 25.078125 C 19.339844 24.980469 19.371094 24.933594 19.453125 24.878906 C 19.710938 24.699219 19.992188 24.683594 20.242188 24.832031 Z M 20.242188 24.832031 "/>
</g>
</svg>
